<svg width="113" height="112" viewBox="0 0 113 112" fill="none" xmlns="http://www.w3.org/2000/svg">
<rect width="113" height="112" fill="#E0E0E0"/>
<path d="M66.7366 64.4314C66.8739 63.9488 67.3765 63.6689 67.8591 63.8062C68.3417 63.9435 68.6216 64.4461 68.4843 64.9287C68.0427 66.4807 66.8092 67.697 65.2153 68.0955L50.4465 71.7875C47.95 72.3644 45.5011 70.8552 44.934 68.398L41.1173 51.8588C40.5604 49.4455 42.0392 47.0308 44.442 46.4301L47.8746 45.572C48.3614 45.4503 48.8547 45.7462 48.9764 46.233C49.0981 46.7198 48.8021 47.2131 48.3153 47.3348L44.8827 48.193C43.441 48.5534 42.5537 50.0022 42.8879 51.4502L46.7046 67.9894C47.0448 69.4636 48.514 70.369 50.0216 70.0208L64.7746 66.3326C65.7316 66.0933 66.4712 65.364 66.7366 64.4314ZM71.1829 58.7036V44.5428C71.1829 43.0375 69.9625 41.8171 68.4572 41.8171H52.1029C50.5976 41.8171 49.3772 43.0375 49.3772 44.5428V55.0693L53.2776 51.1689C53.6324 50.8141 54.2077 50.8141 54.5625 51.1689L61.3044 57.9108L66.136 54.6897C66.4964 54.4494 66.9762 54.497 67.2825 54.8032L71.1829 58.7036ZM71.1601 61.2507L66.5243 56.6148L61.6926 59.8359C61.3322 60.0761 60.8524 60.0286 60.5462 59.7224L53.9201 53.0963L49.3772 57.6391V60.8971C49.3772 62.4024 50.5976 63.6228 52.1029 63.6228H68.4572C69.8427 63.6228 70.9868 62.589 71.1601 61.2507ZM52.1029 40H68.4572C70.9661 40 73 42.0339 73 44.5428V60.8971C73 63.406 70.9661 65.4399 68.4572 65.4399H52.1029C49.594 65.4399 47.5601 63.406 47.5601 60.8971V44.5428C47.5601 42.0339 49.594 40 52.1029 40ZM63.9143 43.6343H67.5486C68.5522 43.6343 69.3657 44.4478 69.3657 45.4514V49.0857C69.3657 50.0893 68.5522 50.9028 67.5486 50.9028H63.9143C62.9107 50.9028 62.0972 50.0893 62.0972 49.0857V45.4514C62.0972 44.4478 62.9107 43.6343 63.9143 43.6343ZM63.9143 45.4514V49.0857H67.5486V45.4514H63.9143Z" fill="#707070"/>
</svg>
