<svg width="32" height="32" viewBox="0 0 32 32" fill="none" xmlns="http://www.w3.org/2000/svg">
<path d="M25.7366 24.4314C25.8739 23.9488 26.3765 23.6689 26.8591 23.8062C27.3417 23.9435 27.6216 24.4461 27.4843 24.9287C27.0427 26.4807 25.8092 27.697 24.2153 28.0955L9.44653 31.7875C6.94999 32.3644 4.50106 30.8552 3.93402 28.398L0.117286 11.8588C-0.439635 9.4455 1.03919 7.03081 3.44199 6.43011L6.87461 5.57196C7.36141 5.45026 7.85471 5.74623 7.97641 6.23304C8.09811 6.71985 7.80213 7.21314 7.31533 7.33484L3.88271 8.193C2.44103 8.55342 1.55373 10.0022 1.88789 11.4502L5.70463 27.9894C6.04482 29.4636 7.51405 30.369 9.02161 30.0208L23.7746 26.3326C24.7316 26.0933 25.4712 25.364 25.7366 24.4314ZM30.1829 18.7036V4.54284C30.1829 3.03748 28.9625 1.81714 27.4572 1.81714H11.1029C9.59756 1.81714 8.37722 3.03748 8.37722 4.54284V15.0693L12.2776 11.1689C12.6324 10.8141 13.2077 10.8141 13.5625 11.1689L20.3044 17.9108L25.136 14.6897C25.4964 14.4494 25.9762 14.497 26.2825 14.8032L30.1829 18.7036ZM30.1601 21.2507L25.5243 16.6148L20.6926 19.8359C20.3322 20.0761 19.8524 20.0286 19.5462 19.7224L12.9201 13.0963L8.37722 17.6391V20.8971C8.37722 22.4024 9.59756 23.6228 11.1029 23.6228H27.4572C28.8427 23.6228 29.9868 22.589 30.1601 21.2507ZM11.1029 0H27.4572C29.9661 0 32 2.0339 32 4.54284V20.8971C32 23.406 29.9661 25.4399 27.4572 25.4399H11.1029C8.59399 25.4399 6.56009 23.406 6.56009 20.8971V4.54284C6.56009 2.0339 8.59399 0 11.1029 0ZM22.9143 3.63427H26.5486C27.5522 3.63427 28.3657 4.44783 28.3657 5.45141V9.08568C28.3657 10.0893 27.5522 10.9028 26.5486 10.9028H22.9143C21.9107 10.9028 21.0972 10.0893 21.0972 9.08568V5.45141C21.0972 4.44783 21.9107 3.63427 22.9143 3.63427ZM22.9143 5.45141V9.08568H26.5486V5.45141H22.9143Z" fill="#707070"/>
</svg>
